<svg width="114" height="80" viewBox="0 0 114 80" fill="none" xmlns="http://www.w3.org/2000/svg">
<path d="M9.40766 36.4554C7.30327 37.0126 5.4764 38.3224 4.2733 40.1366C3.0702 41.9509 2.57447 44.1434 2.88006 46.2988C3.18566 48.4542 4.27134 50.4225 5.93134 51.8308C7.59135 53.2391 9.71032 53.9895 11.8867 53.9397C14.063 53.89 16.1455 53.0435 17.7394 51.5608C19.3333 50.0781 20.3279 48.0622 20.5347 45.8952C20.7414 43.7281 20.146 41.5605 18.8613 39.8031C17.5765 38.0458 15.6917 36.8208 13.564 36.3604" stroke="white" stroke-width="1.71614" stroke-miterlimit="10"/>
<path d="M3.61726 28.042H1.96289V45.726H3.61726V28.042Z" fill="white"/>
<path d="M3.28997 44.376C3.28997 44.376 6.19011 47.0756 10.3218 46.4409C14.4534 45.8061 18.1138 43.3488 20.5407 44.0843C22.9676 44.8197 19.4384 51.8762 16.1981 53.3339C12.9577 54.7916 9.17863 54.0941 6.16065 52.5082C3.14268 50.9222 2.15633 46.8561 2.28081 46.0627C2.4053 45.2692 3.28997 44.376 3.28997 44.376Z" fill="white"/>
<path d="M11.4743 38.4799C12.843 38.4799 13.9526 37.3704 13.9526 36.0017C13.9526 34.633 12.843 33.5234 11.4743 33.5234C10.1056 33.5234 8.99609 34.633 8.99609 36.0017C8.99609 37.3704 10.1056 38.4799 11.4743 38.4799Z" fill="#80C0C0"/>
<path d="M14.6173 33.6272C16.0364 33.6272 17.1868 32.4768 17.1868 31.0577C17.1868 29.6387 16.0364 28.4883 14.6173 28.4883C13.1982 28.4883 12.0479 29.6387 12.0479 31.0577C12.0479 32.4768 13.1982 33.6272 14.6173 33.6272Z" fill="#80C0C0"/>
<path d="M13.6208 40.851C14.1713 40.851 14.6176 40.4047 14.6176 39.8542C14.6176 39.3037 14.1713 38.8574 13.6208 38.8574C13.0703 38.8574 12.624 39.3037 12.624 39.8542C12.624 40.4047 13.0703 40.851 13.6208 40.851Z" fill="#80C0C0"/>
<path d="M11.3306 42.1543C11.6906 42.1543 11.9824 41.8625 11.9824 41.5025C11.9824 41.1424 11.6906 40.8506 11.3306 40.8506C10.9706 40.8506 10.6787 41.1424 10.6787 41.5025C10.6787 41.8625 10.9706 42.1543 11.3306 42.1543Z" fill="#80C0C0"/>
<path d="M12.3765 44.2578C12.6 44.2578 12.7813 44.0766 12.7813 43.853C12.7813 43.6295 12.6 43.4482 12.3765 43.4482C12.1529 43.4482 11.9717 43.6295 11.9717 43.853C11.9717 44.0766 12.1529 44.2578 12.3765 44.2578Z" fill="#80C0C0"/>
<path d="M35.5236 35.4443V47.1029C35.5236 48.7012 34.9465 50.0698 33.7922 51.2089C32.638 52.3479 31.2614 52.918 29.6625 52.9193C27.9482 52.9193 26.5172 52.3454 25.3693 51.1975C24.2081 50.0648 23.6272 48.6996 23.6265 47.1019V35.4443H21.8838V47.2559C21.9281 49.3907 22.6472 51.155 24.0408 52.5487C25.4345 53.9424 27.3154 54.6392 29.6834 54.6392C31.905 54.6392 33.7137 53.9424 35.1093 52.5487C36.5049 51.155 37.2236 49.3904 37.2654 47.2549V35.4443H35.5236Z" fill="white"/>
<path d="M79.2373 25.6738V54.4253H80.8651V25.6738H79.2373Z" fill="white"/>
<path d="M97.7105 50.8058C96.1116 52.4054 94.187 53.2052 91.9368 53.2052C89.6867 53.2052 87.7656 52.4133 86.1736 50.8296C84.5791 49.2458 83.7822 47.3276 83.7828 45.0749C83.7814 44.7691 83.8017 44.4636 83.8436 44.1608H101.473C101.473 41.8168 100.626 39.7896 98.9306 38.0792C97.0067 36.1553 94.6754 35.1927 91.9368 35.1914C89.2261 35.1914 86.905 36.154 84.9735 38.0792C83.0419 40.0044 82.0762 42.3356 82.0762 45.073C82.0762 47.785 83.0419 50.1064 84.9735 52.0373C86.905 53.9682 89.2261 54.9343 91.9368 54.9356C94.6748 54.9356 97.0061 53.9663 98.9306 52.0278C99.5819 51.3911 100.009 50.9034 100.213 50.5644L98.484 49.9544C98.2395 50.2509 97.9817 50.5347 97.7105 50.8058ZM86.1622 39.2974C87.7624 37.6985 89.6873 36.8987 91.9368 36.898C94.1864 36.8974 96.1109 37.6972 97.7105 39.2974C98.6106 40.192 99.2747 41.2959 99.6433 42.5102H84.1544C84.5659 41.2983 85.2533 40.1985 86.1622 39.2974Z" fill="white"/>
<path d="M110.167 45.4992C109.516 44.8486 108.425 44.1097 106.894 43.2823C105.931 42.6723 105.3 42.2111 105.002 41.8988C104.638 41.5318 104.39 41.0652 104.29 40.5577C104.189 40.0501 104.241 39.5243 104.439 39.0463C104.637 38.5683 104.972 38.1595 105.401 37.8712C105.831 37.5829 106.336 37.428 106.853 37.426C107.584 37.426 108.174 37.6566 108.621 38.1178C109.068 38.5789 109.353 39.2634 109.476 40.1712L110.879 39.6011V39.5203C110.879 38.5587 110.506 37.7035 109.76 36.9547C108.989 36.1812 108.02 35.7947 106.854 35.7954C106.296 35.7871 105.742 35.8942 105.227 36.1101C104.712 36.3259 104.247 36.6458 103.861 37.0497C103.468 37.4427 103.156 37.9094 102.943 38.423C102.73 38.9365 102.621 39.487 102.621 40.043C102.621 40.5989 102.73 41.1494 102.943 41.663C103.156 42.1765 103.468 42.6432 103.861 43.0362C104.389 43.5646 105.34 44.2018 106.712 44.9481C107.877 45.6931 108.65 46.2556 109.03 46.6357C109.376 46.9615 109.651 47.3556 109.836 47.793C110.022 48.2304 110.114 48.7016 110.108 49.1767C110.115 49.8972 109.907 50.6035 109.511 51.2053C109.115 51.8071 108.548 52.2771 107.883 52.5554C107.219 52.8336 106.486 52.9074 105.779 52.7673C105.073 52.6272 104.424 52.2796 103.915 51.7689C103.205 51.0569 102.85 50.1792 102.849 49.1358L101.243 49.5416C101.243 50.7623 101.75 51.8846 102.764 52.9083C103.249 53.3951 103.826 53.7814 104.461 54.045C105.096 54.3085 105.777 54.4442 106.464 54.4442C107.152 54.4442 107.833 54.3085 108.468 54.045C109.103 53.7814 109.679 53.3951 110.165 52.9083C111.179 51.8839 111.687 50.6401 111.69 49.1767C111.691 47.7558 111.184 46.5299 110.167 45.4992Z" fill="white"/>
<path d="M47.7582 54.7846C47.4599 54.7846 47.1605 54.771 46.8603 54.7437C44.9416 54.5696 43.1177 53.8304 41.6191 52.6196C40.1206 51.4088 39.0147 49.7809 38.4414 47.9416C37.868 46.1024 37.8529 44.1344 38.398 42.2866C38.9431 40.4388 40.0239 38.7941 41.5037 37.5605C42.7051 36.5594 44.1298 35.8622 45.6574 35.5279C47.185 35.1936 48.7707 35.232 50.2804 35.6399C51.79 36.0477 53.1793 36.8131 54.3307 37.8712C55.4822 38.9293 56.362 40.249 56.8957 41.7189C57.4295 43.1888 57.6015 44.7656 57.3973 46.316C57.193 47.8663 56.6185 49.3448 55.7223 50.6263C54.8261 51.9077 53.6345 52.9546 52.2483 53.6784C50.8621 54.4022 49.322 54.7816 47.7582 54.7846ZM42.6022 38.8785C41.3831 39.8948 40.4927 41.2498 40.0437 42.7721C39.5947 44.2944 39.6071 45.9157 40.0795 47.4309C40.5519 48.9462 41.4631 50.2873 42.6977 51.2847C43.9323 52.2821 45.4349 52.891 47.0156 53.0344C48.5963 53.1778 50.184 52.8492 51.5779 52.0903C52.9719 51.3313 54.1095 50.1761 54.8468 48.7706C55.5842 47.3651 55.8882 45.7725 55.7205 44.1942C55.5527 42.616 54.9207 41.1229 53.9044 39.9038C53.2338 39.0883 52.4078 38.4142 51.4745 37.9206C50.5412 37.4269 49.5192 37.1236 48.4677 37.0282C47.4162 36.9328 46.3562 37.0473 45.3493 37.3649C44.3424 37.6825 43.4086 38.197 42.6022 38.8785Z" fill="white"/>
<path d="M39.6739 28.042H38.0195V45.726H39.6739V28.042Z" fill="white"/>
<path d="M67.8623 54.7788C65.8603 54.7808 63.9063 54.1658 62.2664 53.0174C60.6265 51.869 59.3804 50.243 58.6978 48.361C58.0152 46.4789 57.9292 44.4322 58.4517 42.4995C58.9741 40.5669 60.0795 38.8422 61.6173 37.5604C62.8186 36.5575 64.2437 35.8587 65.7722 35.5233C67.3007 35.1879 68.8875 35.2256 70.3983 35.6333C71.9091 36.0411 73.2994 36.8068 74.4516 37.8657C75.6038 38.9246 76.4839 40.2455 77.0175 41.7165C77.551 43.1876 77.7223 44.7656 77.5168 46.3169C77.3113 47.8682 76.7351 49.3472 75.837 50.6286C74.9388 51.9101 73.7452 52.9563 72.3571 53.6787C70.9689 54.4011 69.4272 54.7784 67.8623 54.7788ZM67.8405 37.0168C65.9664 37.0148 64.1517 37.674 62.7158 38.8783C61.2896 40.067 60.3196 41.7134 59.9712 43.537C59.6228 45.3606 59.9175 47.2486 60.805 48.8794C61.6926 50.5101 63.1182 51.7826 64.8388 52.48C66.5594 53.1775 68.4687 53.2567 70.2412 52.7043C72.0137 52.1518 73.5399 51.0019 74.5595 49.4504C75.5792 47.8988 76.0294 46.0417 75.8333 44.1955C75.6373 42.3493 74.8071 40.6281 73.4843 39.3254C72.1615 38.0226 70.4278 37.2189 68.5788 37.051C68.3327 37.0282 68.0856 37.0168 67.8405 37.0168Z" fill="white"/>
<path d="M59.7872 28.042H58.1328V45.726H59.7872V28.042Z" fill="white"/>
</svg>
